PathFileType	4	(X/Y/Z)	C:/Users/beibeiliu/ov580/test_trc/User3\sequence.10_training_dense_left.trc
DataRate	CameraRate	NumFrames	NumMarkers	Units	OrigDataRate	OrigDataStartFrame	OrigNumFrames
120	120	15	19	mm	120	198	263
Frame#	Time	ThumbCMC			ThumbMCP			ThumbIP			ThumbTip			IndexMCP			IndexPIP			IndexTip			MiddleMCP			MiddlePIP			MiddleTip			RingMCP			RingPIP			RingTip			PinkyMCP			PinkyPIP			PinkyTip			BackHand1			BackHand2			BackHand3	
		X0	Y0	Z0	X1	Y1	Z1	X2	Y2	Z2	X3	Y3	Z3	X4	Y4	Z4	X5	Y5	Z5	X6	Y6	Z6	X7	Y7	Z7	X8	Y8	Z8	X9	Y9	Z9	X10	Y10	Z10	X11	Y11	Z11	X12	Y12	Z12	X13	Y13	Z13	X14	Y14	Z14	X15	Y15	Z15	X16	Y16	Z16	X17	Y17	Z17	X18	Y18	Z18	
197	1.64167	-220.333	2.12805	16.7728	-207.611	10.1149	-1.88411	-199.888	33.2635	-20.6118	-191.931	52.7569	-23.0337	-199.478	5.20373	-55.6942	-171.824	-8.52988	-44.9041	-184.217	-14.1266	-17.0158	-203.946	-18.9122	-61.5131	-174.057	-23.794	-48.0788	-196.133	-27.4904	-10.8769	-204.178	-37.3735	-54.5533	-180.169	-42.4905	-35.7265	-198.285	-42.2251	-7.68402	-208.921	-53.5343	-48.3625	-188.377	-55.7641	-29.9338	-201.822	-52.1207	-4.05854	-253.273	-37.3392	-24.5084	-260.66	-46.138	8.93633	-249.315	-10.9471	-2.04462	
198	1.65	-216.645	-0.405962	21.6277	-204.451	6.58887	-2.28996	-192.805	28.3607	-14.1032	-184.133	48.158	-21.2114	-201.237	4.07922	-52.2966	-170.17	-8.2665	-45.2881	-184.755	-20.2426	-17.3325	-201.533	-19.3306	-62.0434	-176.734	-32.6582	-46.0957	-197.138	-31.3422	-11.8765	-209.094	-40.0395	-54.8763	-185.507	-50.7658	-35.3758	-199.541	-43.8289	-8.05316	-215.825	-55.4853	-49.0241	-193.187	-60.6918	-30.8457	-207.536	-56.6259	-4.69707	-255.947	-34.5135	-26.2356	-262.657	-41.3753	7.14397	-249.601	-8.72992	3.11633	
199	1.65833	-215.77	-6.34654	17.3251	-202.105	5.30061	-3.45708	-187.165	28.8393	-15.5856	-176.416	41.7244	-19.0117	-197.648	0.0188028	-55.0011	-171.65	-15.8571	-47.1716	-185.154	-22.9875	-16.5437	-202.156	-17.3563	-61.6752	-179.192	-34.6385	-50.3699	-197.469	-38.0846	-15.681	-210.486	-38.1289	-55.1193	-188.769	-51.4752	-38.0925	-206.053	-46.7649	-8.70783	-214.899	-57.0662	-51.0314	-198.312	-61.7736	-33.3701	-214.02	-59.9081	-7.06118	-254.97	-27.9995	-24.1382	-265.677	-38.5388	6.85558	-245.843	-2.48598	1.3558	
200	1.66667	-211.528	-8.22644	17.707	-196.843	1.96856	-1.58086	-179.059	22.9913	-10.4537	-167.504	36.1064	-18.3298	-193.716	-3.45476	-55.4028	-169.998	-21.7917	-47.8171	-185.806	-27.7699	-16.3704	-207.183	-20.7974	-61.5247	-178.614	-39.8969	-48.1325	-201.824	-41.6278	-17.9854	-214.099	-36.1943	-55.2597	-193.445	-56.7468	-42.1578	-207.502	-48.3501	-10.466	-223.27	-53.4293	-52.0592	-204.369	-64.844	-35.0715	-220.009	-60.2255	-6.86324	-257.681	-27.0576	-21.5499	-267.482	-36.0081	7.18487	-245.648	-6.77006	5.22199	
201	1.675	-207.238	-12.4486	18.7059	-190.257	-4.36426	4.99158	-174.634	12.8311	-6.18925	-159.466	25.4147	-12.9476	-193.212	-7.25101	-52.5812	-172.076	-33.1044	-46.4279	-186.569	-35.5735	-19.6086	-202.758	-20.3214	-61.3939	-182.946	-46.4498	-49.1668	-203.606	-45.0356	-17.94	-215.29	-42.0576	-59.5141	-199.818	-62.6927	-41.4179	-214.381	-52.4184	-11.6945	-226.464	-54.9871	-55.427	-209.556	-69.9117	-35.1907	-223.9	-61.985	-11.573	-256.344	-22.1047	-24.9456	-265.823	-30.7297	9.4231	-241.173	-5.37949	7.16337	
202	1.68333	-205.914	-20.0241	22.5905	-191.954	-9.96301	-1.29518	-171.692	6.72603	-8.61312	-153.696	17.9782	-10.4873	-189.926	-8.30481	-49.5715	-169.869	-37.362	-46.9824	-188.596	-41.7837	-21.2492	-202.842	-21.6043	-59.9678	-182.866	-50.506	-50.1013	-206.323	-49.7456	-20.925	-214.296	-38.6415	-58.4093	-199.287	-62.2942	-47.0294	-212.443	-56.8628	-15.8843	-226.656	-54.3583	-56.7491	-213.428	-70.6644	-42.9987	-225.351	-64.934	-13.7664	-252.858	-19.6391	-23.5879	-265.07	-27.0956	7.44062	-235.784	-7.14867	3.58027	
203	1.69167	-204.135	-22.8563	19.8153	-186.482	-13.9511	0.906969	-166.289	1.65312	-7.3913	-152.748	10.3925	-12.7358	-189.844	-13.8187	-51.5436	-169.442	-40.4952	-50.0969	-189.08	-46.8233	-21.8165	-203.421	-25.388	-60.0107	-184.791	-53.8271	-52.7762	-204.463	-49.9227	-19.6381	-218.674	-42.9665	-59.8263	-202.848	-66.9292	-44.335	-218.406	-59.548	-15.2328	-232.742	-52.4828	-57.2196	-215.593	-72.3944	-43.6278	-225.4	-66.7147	-18.4019	-254.465	-21.6127	-24.75	-268.666	-30.8592	6.56583	-231.62	-8.68827	5.96836	
204	1.7	-206.797	-28.8128	18.4347	-187.087	-19.7852	1.14728	-168.146	-8.83663	-7.83676	-148.063	4.98791	-12.4319	-183.702	-18.3572	-52.0439	-174.467	-48.2365	-51.0759	-191.446	-49.4021	-21.2836	-204.278	-30.1936	-62.3114	-187.678	-58.0936	-56.9355	-209.419	-55.541	-23.4825	-216.739	-43.358	-59.7118	-204.876	-70.3554	-46.1249	-217.515	-65.2128	-18.9734	-233.96	-54.2237	-59.0923	-218.125	-75.1695	-46.6355	-229.52	-70.8411	-18.7992	-251.859	-20.9138	-21.9387	-264.054	-29.9666	6.9007	-233.385	-11.5929	6.67166	
205	1.70833	-202.015	-30.5806	19.8803	-186.293	-26.8644	3.51096	-164.116	-10.729	-9.86466	-145.574	-3.17068	-9.53464	-186.721	-19.8039	-49.9351	-170.642	-50.4421	-49.3209	-190.329	-54.8084	-22.9071	-200.727	-30.5171	-61.1314	-190.178	-62.2199	-57.153	-210.594	-56.0283	-22.4557	-217.642	-48.3658	-63.0651	-207.842	-74.2433	-48.1487	-214.778	-66.986	-18.9594	-229.832	-55.5185	-60.7692	-219.761	-76.4292	-47.3341	-226.326	-70.4818	-19.9449	-251.646	-19.852	-21.8094	-267.159	-32.6798	5.40281	-232.911	-14.6309	6.33711	
206	1.71667	-201.344	-35.0426	18.049	-183.834	-30.6322	1.48016	-161.985	-17.9039	-10.2295	-139.626	-7.594	-10.0784	-186.554	-24.0586	-52.1774	-172.431	-55.6638	-49.9458	-189.697	-57.7188	-22.2908	-198.628	-33.745	-61.4431	-192.578	-64.9767	-57.3267	-208.266	-58.2402	-22.8008	-219.483	-46.6159	-61.8575	-207.425	-74.4774	-50.5685	-220.427	-66.6629	-19.1386	-234.96	-53.907	-59.1323	-220.52	-75.9721	-47.6508	-228.858	-66.7963	-17.9816	-248.661	-19.4756	-20.8903	-265.765	-31.6306	8.23987	-226.262	-15.5995	6.03745	
207	1.725	-200.361	-39.6842	19.5899	-180.38	-35.8917	2.10073	-156.327	-22.6958	-8.52812	-137.106	-18.3902	-8.35586	-181.812	-27.2183	-52.8062	-171.695	-56.8741	-53.0267	-188.208	-61.0792	-25.691	-198.952	-35.6427	-62.7243	-192.143	-66.1752	-59.0605	-210.813	-59.9682	-23.1944	-214.496	-45.4551	-60.8202	-212.517	-74.7313	-53.8711	-218.076	-69.0412	-22.0049	-235.478	-55.6305	-61.8498	-225.01	-78.347	-49.0801	-235.134	-67.4838	-20.6259	-245.69	-19.5202	-18.8092	-260.678	-27.3555	7.43055	-225.18	-18.5472	9.8525	
208	1.73333	-197.812	-44.0828	20.7278	-179.616	-38.3942	-0.222104	-152.033	-29.0907	-8.02384	-131.017	-24.2371	-11.5236	-182.292	-29.9491	-53.8304	-170.929	-61.4407	-53.7653	-187.818	-63.9063	-26.3998	-199.338	-35.0543	-62.2155	-192.433	-67.5398	-58.3248	-212.279	-58.864	-22.9825	-219.069	-45.388	-62.6832	-209.956	-74.9315	-50.6509	-219.686	-67.2015	-19.9892	-231.624	-51.4841	-60.3929	-224.689	-75.949	-46.7714	-232.706	-69.1774	-22.8478	-243.463	-19.5556	-16.5534	-258.582	-27.7178	9.42836	-222.602	-19.5439	8.62318	
209	1.74167	-195.667	-46.3058	20.2334	-177.181	-43.7923	3.01718	-149.058	-32.5694	-10.5801	-131.126	-30.5812	-13.0966	-179.434	-30.0908	-50.6551	-173.576	-62.6938	-56.0827	-189.801	-64.4618	-26.7578	-198.651	-36.6918	-62.911	-194.144	-70.5586	-58.4973	-206.264	-60.5032	-21.2006	-214.583	-43.8041	-60.6234	-209.647	-75.1392	-53.7036	-217.914	-66.7943	-19.593	-233.65	-52.1309	-60.4024	-228.079	-76.843	-48.1784	-233.5	-64.8243	-19.4694	-240.653	-17.0357	-16.847	-250.255	-24.1061	8.52032	-219.185	-19.0719	11.0263	
210	1.75	-192.23	-45.7871	18.9881	-173.974	-46.4903	2.17641	-148.796	-38.5866	-10.1037	-125.984	-36.021	-12.1141	-171.98	-34.074	-52.1724	-169.47	-66.8983	-53.348	-186.714	-66.6562	-27.0115	-193.288	-39.1635	-62.6491	-189.636	-69.1962	-60.0497	-207.436	-59.737	-21.7977	-214.303	-46.714	-61.0336	-208.58	-74.194	-53.1471	-215.827	-67.4386	-20.5647	-232.925	-50.3989	-60.6476	-226.113	-76.4997	-47.3945	-229.468	-65.9673	-19.2021	-235.639	-15.5682	-13.0859	-251.143	-26.25	13.1288	-211.619	-19.6548	9.2396	
211	1.75833	-191.78	-49.0165	20.2196	-170.638	-46.3015	0.522607	-142.798	-41.6411	-8.19691	-126.175	-41.7435	-12.131	-168.026	-35.2953	-51.3844	-168.331	-66.0246	-55.3985	-185.903	-66.1583	-24.1841	-191.787	-37.8538	-61.3948	-187.603	-69.5011	-60.4366	-205.12	-60.813	-22.5761	-210.071	-48.6785	-62.164	-208.463	-76.8397	-49.8867	-214.254	-64.8148	-17.983	-226.49	-51.7875	-60.4215	-222.593	-74.6797	-48.627	-226.088	-67.9873	-19.6463	-233.773	-15.1771	-16.3621	-247.062	-24.2508	10.1631	-206.311	-19.0573	12.7316	
